<svg width="1237" height="324" viewBox="0 0 3551 930" fill="none" xmlns="http://www.w3.org/2000/svg">
<path d="M691.534 739.92L780.002 790.415C808.481 806.014 832.119 844.933 832.843 877.375C833.115 889.108 830.174 903.611 818.66 910.608C807.192 917.594 792.918 913.502 782.603 907.85L594.696 802.442L624.566 780.546L781.744 868.682C785.193 870.57 789.932 871.972 793.755 869.621C797.612 867.292 798.573 862.454 798.494 858.543C798.257 847.714 790.362 834.737 780.873 829.537L663.597 761.013L691.534 739.909V739.92Z" fill="#4535D8"/>
<path d="M2437.76 739.92L2526.22 790.415C2554.7 806.014 2578.34 844.933 2579.06 877.375C2579.34 889.108 2576.4 903.611 2564.88 910.608C2553.41 917.594 2539.14 913.502 2528.83 907.85L2340.92 802.442L2370.79 780.546L2527.97 868.682C2531.42 870.57 2536.15 871.972 2539.98 869.621C2543.83 867.292 2544.79 862.454 2544.72 858.543C2544.48 847.714 2536.58 834.737 2527.09 829.537L2409.82 761.013L2437.76 739.909V739.92Z" fill="#4535D8"/>
<path d="M827.915 427.724L947.973 496.349L982.107 476.466L913.511 437.253C910.073 435.286 906.385 431.917 906.374 427.43C906.352 422.897 910.005 419.506 913.42 417.482C922.842 412.011 938.167 411.955 947.645 417.369L1016.24 456.582L1050.38 436.699L930.318 368.073L827.915 427.712V427.724Z" fill="#4535D8"/>
<path d="M2574.14 427.724L2694.19 496.349L2728.33 476.466L2659.73 437.253C2656.29 435.286 2652.61 431.917 2652.6 427.43C2652.57 422.897 2656.23 419.506 2659.64 417.482C2669.06 412.011 2684.39 411.955 2693.87 417.369L2762.46 456.582L2796.6 436.699L2676.54 368.073L2574.14 427.712V427.724Z" fill="#4535D8"/>
<path d="M279.35 707.032L381.12 764.761L414.756 745.024L346.906 706.546L380.543 686.81L448.393 725.288L482.029 705.54L380.26 647.812L279.35 707.032Z" fill="#4535D8"/>
<path d="M2025.57 707.032L2127.34 764.761L2160.98 745.024L2093.13 706.546L2126.76 686.81L2194.61 725.288L2228.25 705.54L2126.48 647.812L2025.57 707.032Z" fill="#4535D8"/>
<path d="M515.813 608.825L414.462 667.311L380.69 647.823L482.029 589.337L515.813 608.825Z" fill="#7569E2" stroke="#443FC7" stroke-width="4" stroke-linecap="round" stroke-linejoin="round"/>
<path d="M482.029 667.311V745.273L448.257 725.785V686.798L482.029 667.311Z" fill="#7569E2" stroke="#443FC7" stroke-width="4" stroke-linecap="round" stroke-linejoin="round"/>
<path d="M515.813 608.824V725.785L482.029 745.273V667.31L448.257 686.798V764.772L414.462 784.26V667.31L515.813 608.824Z" fill="#C4BFF2" stroke="#4535D8" stroke-width="4" stroke-linejoin="round"/>
<path d="M414.462 667.311V784.26L380.69 764.773V647.823L414.462 667.311Z" fill="#7569E2" stroke="#443FC7" stroke-width="4" stroke-linecap="round" stroke-linejoin="round"/>
<path d="M2262.03 608.825L2160.68 667.311L2126.91 647.823L2228.25 589.337L2262.03 608.825Z" fill="#7569E2" stroke="#443FC7" stroke-width="4" stroke-linecap="round" stroke-linejoin="round"/>
<path d="M2228.25 667.311V745.273L2194.48 725.785V686.798L2228.25 667.311Z" fill="#7569E2" stroke="#443FC7" stroke-width="4" stroke-linecap="round" stroke-linejoin="round"/>
<path d="M2262.03 608.824V725.785L2228.25 745.273V667.31L2194.48 686.798V764.772L2160.68 784.26V667.31L2262.03 608.824Z" fill="#C4BFF2" stroke="#4535D8" stroke-width="4" stroke-linejoin="round"/>
<path d="M2160.68 667.311V784.26L2126.91 764.773V647.823L2160.68 667.311Z" fill="#7569E2" stroke="#443FC7" stroke-width="4" stroke-linecap="round" stroke-linejoin="round"/>
<path d="M82.7906 608.101L268.21 714.561L301.835 695.061L116.416 588.602C109.743 584.77 100.672 583.967 93.3317 585.109C89.5428 585.742 85.539 586.963 82.2138 589.02C79.0356 590.987 75.8009 594.209 75.7783 598.425C75.8009 602.89 79.4315 606.179 82.7793 608.101H82.7906Z" fill="#4535D8"/>
<path d="M1829.01 608.101L2014.43 714.561L2048.06 695.061L1862.64 588.602C1855.96 584.77 1846.89 583.967 1839.55 585.109C1835.76 585.742 1831.76 586.963 1828.44 589.02C1825.26 590.987 1822.02 594.209 1822 598.425C1822.02 602.89 1825.65 606.179 1829 608.101H1829.01Z" fill="#4535D8"/>
<path d="M330.789 488.891C327.113 486.8 322.714 487.998 319.422 489.784C315.984 491.638 312.93 494.498 310.499 497.471C305.861 503.27 302.039 511.533 302.039 519.219V732.941L268.38 713.509V499.788C268.38 492.101 272.168 483.838 276.84 478.039C279.271 475.066 282.325 472.207 285.763 470.353C289.043 468.578 293.454 467.38 297.13 469.46L330.789 488.891Z" fill="#7569E2" stroke="#443FC7" stroke-width="4" stroke-linecap="round" stroke-linejoin="round"/>
<path d="M335.698 499.777V713.498L302.039 732.929V519.208C302.039 511.521 305.861 503.258 310.499 497.459C312.93 494.486 315.984 491.627 319.422 489.773C322.702 487.998 327.113 486.8 330.789 488.88C334.657 491.118 335.698 495.911 335.698 499.777Z" fill="#C4BFF2" stroke="#4535D8" stroke-width="4" stroke-linejoin="round"/>
<path d="M2077.01 488.891C2073.34 486.8 2068.94 487.998 2065.64 489.784C2062.21 491.638 2059.15 494.498 2056.72 497.471C2052.08 503.27 2048.26 511.533 2048.26 519.219V732.941L2014.6 713.509V499.788C2014.6 492.101 2018.39 483.838 2023.06 478.039C2025.49 475.066 2028.55 472.207 2031.98 470.353C2035.26 468.578 2039.68 467.38 2043.35 469.46L2077.01 488.891Z" fill="#7569E2" stroke="#443FC7" stroke-width="4" stroke-linecap="round" stroke-linejoin="round"/>
<path d="M2081.92 499.777V713.498L2048.26 732.929V519.208C2048.26 511.521 2052.08 503.258 2056.72 497.459C2059.15 494.486 2062.21 491.627 2065.64 489.773C2068.92 487.998 2073.33 486.8 2077.01 488.88C2080.88 491.118 2081.92 495.911 2081.92 499.777Z" fill="#C4BFF2" stroke="#4535D8" stroke-width="4" stroke-linejoin="round"/>
<path d="M1365.16 775.398L1220.13 691.941L1187.98 714.832L1339.69 799.69L1365.16 775.398Z" fill="#4535D8"/>
<path d="M3111.38 775.398L2966.35 691.941L2934.2 714.832L3085.91 799.69L3111.38 775.398Z" fill="#4535D8"/>
<path d="M1475.46 749.534L1176.63 577.343L1144.14 600.018L1441.68 769.022L1475.46 749.534Z" fill="#4535D8"/>
<path d="M3221.68 749.534L2922.85 577.343L2890.36 600.018L3187.9 769.022L3221.68 749.534Z" fill="#4535D8"/>
<path d="M1617.1 315.729L1352.87 165.388L1320.37 188.063L1583.31 335.228L1617.1 315.729Z" fill="#4535D8"/>
<path d="M3363.32 315.729L3099.09 165.388L3066.6 188.063L3329.54 335.228L3363.32 315.729Z" fill="#4535D8"/>
<path d="M1576.79 690.438L1396.6 583.47L1364.22 610.622L1542.72 710.652L1576.79 690.438Z" fill="#4535D8"/>
<path d="M3323.01 690.438L3142.83 583.47L3110.45 610.622L3288.94 710.652L3323.01 690.438Z" fill="#4535D8"/>
<path d="M385.135 803.171L138.572 660.528L106.078 683.204L317.703 805.319L385.135 803.171Z" fill="#4535D8"/>
<path d="M2131.36 803.171L1884.79 660.528L1852.3 683.204L2063.93 805.319L2131.36 803.171Z" fill="#4535D8"/>
<path d="M616.767 304.299L322.239 129.994L263.776 165.658L517.532 312.088L616.767 304.299Z" fill="#4535D8"/>
<path d="M2362.99 304.299L2068.46 129.994L2010 165.658L2263.75 312.088L2362.99 304.299Z" fill="#4535D8"/>
<path d="M547.512 345.874L359.526 234.622L323.876 258.044L484.639 350.803L547.512 345.874Z" fill="#4535D8"/>
<path d="M2293.73 345.874L2105.75 234.622L2070.1 258.044L2230.86 350.803L2293.73 345.874Z" fill="#4535D8"/>
<path d="M874.764 702.228V819.686C874.764 852.151 851.985 891.568 823.868 907.8C813.7 913.678 799.563 918.075 787.89 911.338C776.252 904.646 772.972 890.166 772.972 878.41V682.639L806.926 663.061V858.832C806.926 862.765 807.977 867.592 811.868 869.808C815.759 872.068 820.475 870.588 823.857 868.643C833.244 863.229 840.833 850.082 840.833 839.253V721.795L874.753 702.217L874.764 702.228Z" fill="#C4BFF2" stroke="#4535D8" stroke-width="4" stroke-linejoin="round"/>
<path d="M2620.99 702.228V819.686C2620.99 852.151 2598.21 891.568 2570.09 907.8C2559.92 913.678 2545.78 918.075 2534.11 911.338C2522.47 904.646 2519.19 890.166 2519.19 878.41V682.639L2553.15 663.061V858.832C2553.15 862.765 2554.2 867.592 2558.09 869.808C2561.98 872.068 2566.7 870.588 2570.08 868.643C2579.47 863.229 2587.06 850.082 2587.06 839.253V721.795L2620.97 702.217L2620.99 702.228Z" fill="#C4BFF2" stroke="#4535D8" stroke-width="4" stroke-linejoin="round"/>
<path d="M874.764 702.228L840.845 721.806L806.926 702.228L840.845 682.649L874.764 702.228Z" fill="#7569E2" stroke="#443FC7" stroke-width="4" stroke-linecap="round" stroke-linejoin="round"/>
<path d="M2620.99 702.228L2587.07 721.806L2553.15 702.228L2587.07 682.649L2620.99 702.228Z" fill="#7569E2" stroke="#443FC7" stroke-width="4" stroke-linecap="round" stroke-linejoin="round"/>
<path d="M840.845 721.806V839.264C840.845 850.082 833.256 863.239 823.868 868.654C820.475 870.598 815.77 872.079 811.879 869.818C807.989 867.603 806.937 862.776 806.937 858.842V702.228L840.856 721.806H840.845Z" fill="#7569E2" stroke="#443FC7" stroke-width="4" stroke-linecap="round" stroke-linejoin="round"/>
<path d="M2587.07 721.806V839.264C2587.07 850.082 2579.48 863.239 2570.09 868.654C2566.7 870.598 2561.99 872.079 2558.1 869.818C2554.21 867.603 2553.16 862.776 2553.16 858.842V702.228L2587.08 721.806H2587.07Z" fill="#7569E2" stroke="#443FC7" stroke-width="4" stroke-linecap="round" stroke-linejoin="round"/>
<path d="M787.891 911.349L753.971 891.77C742.333 885.078 739.053 870.598 739.053 858.842V663.071L772.972 682.649V878.421C772.972 890.176 776.241 904.657 787.891 911.349Z" fill="#7569E2" stroke="#443FC7" stroke-width="4" stroke-linecap="round" stroke-linejoin="round"/>
<path d="M2534.11 911.349L2500.19 891.77C2488.55 885.078 2485.27 870.598 2485.27 858.842V663.071L2519.19 682.649V878.421C2519.19 890.176 2522.46 904.657 2534.11 911.349Z" fill="#7569E2" stroke="#443FC7" stroke-width="4" stroke-linecap="round" stroke-linejoin="round"/>
<path d="M806.926 663.071L772.972 682.65L739.053 663.071L772.972 643.493L806.926 663.071Z" fill="#7569E2" stroke="#443FC7" stroke-width="4" stroke-linecap="round" stroke-linejoin="round"/>
<path d="M2553.15 663.071L2519.19 682.65L2485.27 663.071L2519.19 643.493L2553.15 663.071Z" fill="#7569E2" stroke="#443FC7" stroke-width="4" stroke-linecap="round" stroke-linejoin="round"/>
<path d="M352.55 765.62V823.982L318.834 804.528V746.166C318.834 730.759 311.223 714.188 301.88 702.624C297.3 696.949 291.565 691.523 285.119 687.804C284.745 687.59 284.372 687.375 283.988 687.171C277.428 683.633 268.594 681.226 261.277 685.442C253.563 689.896 251.403 699.47 251.403 707.258V765.62L217.699 746.166V687.804C217.699 679.575 218.83 670.984 221.883 663.219C224.948 655.419 229.959 648.49 237.446 644.172C244.922 639.854 253.439 638.983 261.729 640.227C269.974 641.47 277.993 644.782 285.119 648.897C322.363 670.385 352.55 722.643 352.55 765.62Z" fill="#7569E2" stroke="#443FC7" stroke-width="4" stroke-linecap="round" stroke-linejoin="round"/>
<path d="M2098.77 765.62V823.982L2065.06 804.528V746.166C2065.06 730.759 2057.44 714.188 2048.1 702.624C2043.52 696.949 2037.79 691.523 2031.34 687.804C2030.97 687.59 2030.59 687.375 2030.21 687.171C2023.65 683.633 2014.82 681.226 2007.5 685.442C1999.78 689.896 1997.62 699.47 1997.62 707.258V765.62L1963.92 746.166V687.804C1963.92 679.575 1965.05 670.984 1968.11 663.219C1971.17 655.419 1976.18 648.49 1983.67 644.172C1991.14 639.854 1999.66 638.983 2007.95 640.227C2016.2 641.47 2024.21 644.782 2031.34 648.897C2068.58 670.385 2098.77 722.643 2098.77 765.62Z" fill="#7569E2" stroke="#443FC7" stroke-width="4" stroke-linecap="round" stroke-linejoin="round"/>
<path d="M285.119 687.804V746.166L251.403 765.62V707.258C251.403 699.47 253.563 689.895 261.277 685.442C268.594 681.225 277.428 683.633 283.988 687.171C284.372 687.375 284.745 687.589 285.119 687.804Z" fill="#C4BFF2" stroke="#4535D8" stroke-width="4" stroke-linejoin="round"/>
<path d="M2031.34 687.804V746.166L1997.62 765.62V707.258C1997.62 699.47 1999.78 689.895 2007.5 685.442C2014.82 681.225 2023.65 683.633 2030.21 687.171C2030.59 687.375 2030.97 687.589 2031.34 687.804Z" fill="#C4BFF2" stroke="#4535D8" stroke-width="4" stroke-linejoin="round"/>
<path d="M318.834 629.443L285.119 648.896C277.993 644.782 269.974 641.47 261.729 640.226C253.439 638.983 244.922 639.853 237.446 644.171L271.162 624.718C278.638 620.4 287.154 619.529 295.445 620.773C303.69 622.016 311.709 625.328 318.834 629.443Z" fill="#7569E2" stroke="#443FC7" stroke-width="4" stroke-linecap="round" stroke-linejoin="round"/>
<path d="M2065.06 629.443L2031.34 648.896C2024.21 644.782 2016.2 641.47 2007.95 640.226C1999.66 638.983 1991.14 639.853 1983.67 644.171L2017.38 624.718C2024.86 620.4 2033.38 619.529 2041.67 620.773C2049.91 622.016 2057.93 625.328 2065.06 629.443Z" fill="#7569E2" stroke="#443FC7" stroke-width="4" stroke-linecap="round" stroke-linejoin="round"/>
<path d="M386.266 746.166V804.527L352.55 823.981V765.62C352.55 722.642 322.363 670.385 285.119 648.896L318.834 629.442C356.079 650.931 386.266 703.189 386.266 746.166Z" fill="#C4BFF2" stroke="#4535D8" stroke-width="4" stroke-linejoin="round"/>
<path d="M2132.49 746.166V804.527L2098.77 823.981V765.62C2098.77 722.642 2068.58 670.385 2031.34 648.896L2065.06 629.442C2102.3 650.931 2132.49 703.189 2132.49 746.166Z" fill="#C4BFF2" stroke="#4535D8" stroke-width="4" stroke-linejoin="round"/>
<path d="M1576.83 515.567V691.037L1543.05 710.536V613.052C1543.05 605.263 1540.88 595.644 1533.12 591.19C1525.79 586.962 1516.95 589.37 1510.4 592.931C1510.01 593.123 1509.62 593.36 1509.23 593.586C1502.75 597.305 1497.05 602.731 1492.44 608.394C1483.09 619.981 1475.45 636.609 1475.45 652.039V749.523L1441.66 769.022V593.553L1475.45 574.053C1516.29 550.485 1550.06 530.986 1576.82 515.567H1576.83Z" fill="#C4BFF2" stroke="#4535D8" stroke-width="4" stroke-linejoin="round"/>
<path d="M3323.05 515.567V691.037L3289.27 710.536V613.052C3289.27 605.263 3287.1 595.644 3279.34 591.19C3272.01 586.962 3263.17 589.37 3256.62 592.931C3256.23 593.123 3255.84 593.36 3255.45 593.586C3248.97 597.305 3243.27 602.731 3238.66 608.394C3229.32 619.981 3221.67 636.609 3221.67 652.039V749.523L3187.89 769.022V593.553L3221.67 574.053C3262.51 550.485 3296.28 530.986 3323.04 515.567H3323.05Z" fill="#C4BFF2" stroke="#4535D8" stroke-width="4" stroke-linejoin="round"/>
<path d="M1576.83 515.567C1550.07 530.997 1516.29 550.496 1475.46 574.053L1441.68 593.553C1430.39 587.042 1419.15 580.531 1407.89 574.053C1367.05 550.485 1333.23 530.986 1306.52 515.567L1340.3 496.068C1367.06 511.498 1400.85 530.997 1441.68 554.554C1482.52 530.986 1516.29 511.487 1543.05 496.068L1576.83 515.567Z" fill="#7569E2" stroke="#443FC7" stroke-width="4" stroke-linecap="round" stroke-linejoin="round"/>
<path d="M3323.05 515.567C3296.29 530.997 3262.51 550.496 3221.68 574.053L3187.9 593.553C3176.61 587.042 3165.37 580.531 3154.11 574.053C3113.27 550.485 3079.46 530.986 3052.74 515.567L3086.52 496.068C3113.28 511.498 3147.07 530.997 3187.9 554.554C3228.74 530.986 3262.51 511.487 3289.27 496.068L3323.05 515.567Z" fill="#7569E2" stroke="#443FC7" stroke-width="4" stroke-linecap="round" stroke-linejoin="round"/>
<path d="M1543.06 613.052V710.537L1509.24 691.037V593.598C1509.63 593.361 1510.02 593.135 1510.41 592.943C1516.97 589.382 1525.8 586.974 1533.13 591.202C1540.89 595.656 1543.06 605.275 1543.06 613.064V613.052Z" fill="#7569E2" stroke="#443FC7" stroke-width="4" stroke-linecap="round" stroke-linejoin="round"/>
<path d="M3289.28 613.052V710.537L3255.47 691.037V593.598C3255.85 593.361 3256.25 593.135 3256.63 592.943C3263.19 589.382 3272.02 586.974 3279.35 591.202C3287.11 595.656 3289.28 605.275 3289.28 613.064V613.052Z" fill="#7569E2" stroke="#443FC7" stroke-width="4" stroke-linecap="round" stroke-linejoin="round"/>
<path d="M1509.23 593.599V593.553" stroke="#443FC7" stroke-width="4" stroke-linecap="round" stroke-linejoin="round"/>
<path d="M3255.45 593.599V593.553" stroke="#443FC7" stroke-width="4" stroke-linecap="round" stroke-linejoin="round"/>
<path d="M1374.08 593.553V691.037L1340.29 710.536V613.052C1340.29 605.264 1342.46 595.644 1350.18 591.19C1357.51 586.963 1366.35 589.37 1372.94 592.931C1373.33 593.123 1373.68 593.361 1374.06 593.553H1374.08Z" fill="#C4BFF2" stroke="#4535D8" stroke-width="4" stroke-linejoin="round"/>
<path d="M3120.3 593.553V691.037L3086.51 710.536V613.052C3086.51 605.264 3088.68 595.644 3096.4 591.19C3103.73 586.963 3112.57 589.37 3119.17 592.931C3119.55 593.123 3119.9 593.361 3120.29 593.553H3120.3Z" fill="#C4BFF2" stroke="#4535D8" stroke-width="4" stroke-linejoin="round"/>
<path d="M1441.68 593.553V769.022L1407.89 749.523V652.039C1407.89 636.609 1400.25 619.981 1390.87 608.394C1386.29 602.731 1380.51 597.271 1374.08 593.586V593.553C1373.69 593.36 1373.34 593.123 1372.96 592.931C1366.36 589.37 1357.52 586.962 1350.19 591.19C1342.47 595.644 1340.3 605.263 1340.3 613.052V710.536L1306.52 691.037V515.567C1333.25 530.997 1367.06 550.496 1407.89 574.053C1419.13 580.53 1430.39 587.042 1441.68 593.553Z" fill="#7569E2" stroke="#443FC7" stroke-width="4" stroke-linecap="round" stroke-linejoin="round"/>
<path d="M3187.9 593.553V769.022L3154.11 749.523V652.039C3154.11 636.609 3146.47 619.981 3137.09 608.394C3132.51 602.731 3126.73 597.271 3120.3 593.586V593.553C3119.91 593.36 3119.56 593.123 3119.18 592.931C3112.58 589.37 3103.74 586.962 3096.41 591.19C3088.7 595.644 3086.52 605.263 3086.52 613.052V710.536L3052.74 691.037V515.567C3079.47 530.997 3113.28 550.496 3154.11 574.053C3165.36 580.53 3176.61 587.042 3187.9 593.553Z" fill="#7569E2" stroke="#443FC7" stroke-width="4" stroke-linecap="round" stroke-linejoin="round"/>
<path d="M1665.79 167.727V284.857C1665.79 296.568 1662.54 310.98 1650.93 317.694L1617.1 337.216C1628.72 330.513 1631.96 316.101 1631.96 304.379V187.248L1665.79 167.727Z" fill="#C4BFF2" stroke="#4535D8" stroke-width="4" stroke-linejoin="round"/>
<path d="M3412.01 167.727V284.857C3412.01 296.568 3408.76 310.98 3397.15 317.694L3363.32 337.216C3374.95 330.513 3378.18 316.101 3378.18 304.379V187.248L3412.01 167.727Z" fill="#C4BFF2" stroke="#4535D8" stroke-width="4" stroke-linejoin="round"/>
<path d="M1598.13 50.6074V284.868C1598.13 288.768 1597.04 293.583 1593.18 295.81C1589.3 298.048 1584.59 296.579 1581.21 294.623C1571.87 289.231 1564.29 276.119 1564.29 265.335V70.1291L1598.13 50.6074Z" fill="#C4BFF2" stroke="#4535D8" stroke-width="4" stroke-linejoin="round"/>
<path d="M3344.35 50.6074V284.868C3344.35 288.768 3343.27 293.583 3339.4 295.81C3335.52 298.048 3330.81 296.579 3327.43 294.623C3318.09 289.231 3310.51 276.119 3310.51 265.335V70.1291L3344.35 50.6074Z" fill="#C4BFF2" stroke="#4535D8" stroke-width="4" stroke-linejoin="round"/>
<path d="M1665.79 167.726L1631.96 187.259L1598.13 167.726L1631.96 148.216L1665.79 167.726Z" fill="#7569E2" stroke="#443FC7" stroke-width="4" stroke-linecap="round" stroke-linejoin="round"/>
<path d="M3412.01 167.726L3378.18 187.259L3344.35 167.726L3378.18 148.216L3412.01 167.726Z" fill="#7569E2" stroke="#443FC7" stroke-width="4" stroke-linecap="round" stroke-linejoin="round"/>
<path d="M1598.13 50.6072L1564.29 70.129L1530.47 50.6072L1564.29 31.0742L1598.13 50.6072Z" fill="#7569E2" stroke="#443FC7" stroke-width="4" stroke-linecap="round" stroke-linejoin="round"/>
<path d="M3344.35 50.6072L3310.51 70.129L3276.69 50.6072L3310.51 31.0742L3344.35 50.6072Z" fill="#7569E2" stroke="#443FC7" stroke-width="4" stroke-linecap="round" stroke-linejoin="round"/>
<path d="M1631.96 187.259V304.39C1631.96 316.112 1628.71 330.524 1617.1 337.227C1605.47 343.931 1591.37 339.533 1581.21 333.678C1553.18 317.513 1530.47 278.176 1530.47 245.825V50.6074L1564.29 70.1291V265.335C1564.29 276.119 1571.87 289.231 1581.21 294.623C1584.59 296.579 1589.3 298.037 1593.18 295.81C1597.04 293.572 1598.13 288.768 1598.13 284.868V167.738L1631.96 187.259Z" fill="#7569E2" stroke="#443FC7" stroke-width="4" stroke-linecap="round" stroke-linejoin="round"/>
<path d="M3378.18 187.259V304.39C3378.18 316.112 3374.93 330.524 3363.32 337.227C3351.69 343.931 3337.59 339.533 3327.43 333.678C3299.41 317.513 3276.69 278.176 3276.69 245.825V50.6074L3310.51 70.1291V265.335C3310.51 276.119 3318.09 289.231 3327.43 294.623C3330.81 296.579 3335.52 298.037 3339.4 295.81C3343.27 293.572 3344.35 288.768 3344.35 284.868V167.738L3378.18 187.259Z" fill="#7569E2" stroke="#443FC7" stroke-width="4" stroke-linecap="round" stroke-linejoin="round"/>
<path d="M569.581 124.172V340.437L552.548 330.603V212.636L518.482 192.979V94.6807L569.581 124.172Z" fill="#7569E2" stroke="#443FC7" stroke-width="4" stroke-linecap="round" stroke-linejoin="round"/>
<path d="M2315.8 124.172V340.437L2298.77 330.603V212.636L2264.7 192.979V94.6807L2315.8 124.172Z" fill="#7569E2" stroke="#443FC7" stroke-width="4" stroke-linecap="round" stroke-linejoin="round"/>
<path d="M552.548 212.636L518.482 232.305L484.415 212.636L518.482 192.979L552.548 212.636Z" fill="#7569E2" stroke="#443FC7" stroke-width="4" stroke-linecap="round" stroke-linejoin="round"/>
<path d="M2298.77 212.636L2264.7 232.305L2230.64 212.636L2264.7 192.979L2298.77 212.636Z" fill="#7569E2" stroke="#443FC7" stroke-width="4" stroke-linecap="round" stroke-linejoin="round"/>
<path d="M552.548 212.637V350.261L518.482 369.918V232.305L552.548 212.637Z" fill="#C4BFF2"/>
<path d="M2298.77 212.637V350.261L2264.7 369.918V232.305L2298.77 212.637Z" fill="#C4BFF2"/>
<path d="M518.482 232.305V369.918L484.415 350.261V212.637L518.482 232.305Z" fill="#7569E2" stroke="#443FC7" stroke-width="4" stroke-linecap="round" stroke-linejoin="round"/>
<path d="M2264.7 232.305V369.918L2230.64 350.261V212.637L2264.7 232.305Z" fill="#7569E2" stroke="#443FC7" stroke-width="4" stroke-linecap="round" stroke-linejoin="round"/>
<path d="M620.681 94.6812L569.581 124.173L518.482 94.6812L569.581 65.1895L620.681 94.6812Z" fill="#7569E2" stroke="#443FC7" stroke-width="4" stroke-linecap="round" stroke-linejoin="round"/>
<path d="M2366.9 94.6812L2315.8 124.173L2264.7 94.6812L2315.8 65.1895L2366.9 94.6812Z" fill="#7569E2" stroke="#443FC7" stroke-width="4" stroke-linecap="round" stroke-linejoin="round"/>
<path d="M620.681 94.6807V310.946L569.581 340.437V124.172L620.681 94.6807Z" fill="#C4BFF2" stroke="#4535D8" stroke-width="4" stroke-linejoin="round"/>
<path d="M2366.9 94.6807V310.946L2315.8 340.437V124.172L2366.9 94.6807Z" fill="#C4BFF2" stroke="#4535D8" stroke-width="4" stroke-linejoin="round"/>
<path d="M1389.27 292.244L1456.56 330.36L1489.9 310.759L1422.61 272.654C1415.95 268.879 1406.91 268.11 1399.62 269.308C1395.83 269.93 1391.85 271.185 1388.56 273.253C1385.42 275.22 1382.22 278.442 1382.24 282.635C1382.28 287.067 1385.9 290.345 1389.26 292.244H1389.27Z" fill="#4535D8"/>
<path d="M1518.77 241.8C1515.14 239.709 1510.75 240.907 1507.49 242.66C1504.06 244.502 1501.01 247.351 1498.6 250.335C1493.96 256.077 1490.17 264.318 1490.17 271.97V349.266L1456.68 329.948V252.641C1456.68 244.988 1460.46 236.759 1465.11 231.005C1467.52 228.021 1470.56 225.184 1473.99 223.341C1477.26 221.578 1481.64 220.38 1485.28 222.471L1518.77 241.8Z" fill="#7569E2" stroke="#443FC7" stroke-width="4" stroke-linecap="round" stroke-linejoin="round"/>
<path d="M1523.68 252.641V329.948L1490.17 349.266V271.971C1490.17 264.318 1493.96 256.077 1498.6 250.335C1501.01 247.351 1504.06 244.502 1507.49 242.66C1510.75 240.908 1515.14 239.709 1518.77 241.801C1522.6 244.016 1523.68 248.775 1523.68 252.641Z" fill="#C4BFF2" stroke="#4535D8" stroke-width="4" stroke-linejoin="round"/>
<path d="M3135.49 292.244L3202.79 330.36L3236.12 310.759L3168.83 272.654C3162.17 268.879 3153.13 268.11 3145.84 269.308C3142.05 269.93 3138.07 271.185 3134.78 273.253C3131.64 275.22 3128.44 278.442 3128.47 282.635C3128.5 287.067 3132.12 290.345 3135.48 292.244H3135.49Z" fill="#4535D8"/>
<path d="M3264.99 241.8C3261.36 239.709 3256.97 240.907 3253.71 242.66C3250.28 244.502 3247.23 247.351 3244.82 250.335C3240.18 256.077 3236.4 264.318 3236.4 271.97V349.266L3202.91 329.948V252.641C3202.91 244.988 3206.68 236.759 3211.33 231.005C3213.74 228.021 3216.78 225.184 3220.21 223.341C3223.48 221.578 3227.86 220.38 3231.5 222.471L3264.99 241.8Z" fill="#7569E2" stroke="#443FC7" stroke-width="4" stroke-linecap="round" stroke-linejoin="round"/>
<path d="M3269.9 252.641V329.948L3236.4 349.266V271.971C3236.4 264.318 3240.18 256.077 3244.82 250.335C3247.23 247.351 3250.28 244.502 3253.71 242.66C3256.97 240.908 3261.36 239.709 3264.99 241.801C3268.82 244.016 3269.9 248.775 3269.9 252.641Z" fill="#C4BFF2" stroke="#4535D8" stroke-width="4" stroke-linejoin="round"/>
<path d="M1402.57 642.193L1369.06 661.522L1335.58 642.193L1369.06 622.863L1402.57 642.193Z" fill="#7569E2" stroke="#443FC7" stroke-width="4" stroke-linecap="round" stroke-linejoin="round"/>
<path d="M3148.79 642.193L3115.29 661.522L3081.8 642.193L3115.29 622.863L3148.79 642.193Z" fill="#7569E2" stroke="#443FC7" stroke-width="4" stroke-linecap="round" stroke-linejoin="round"/>
<path d="M1402.57 642.193V796.818L1369.06 816.137V661.523L1402.57 642.193Z" fill="#C4BFF2" stroke="#4535D8" stroke-width="4" stroke-linejoin="round"/>
<path d="M3148.79 642.193V796.818L3115.29 816.137V661.523L3148.79 642.193Z" fill="#C4BFF2" stroke="#4535D8" stroke-width="4" stroke-linejoin="round"/>
<path d="M1369.06 661.523V816.137L1335.58 796.818V642.193L1369.06 661.523Z" fill="#7569E2" stroke="#443FC7" stroke-width="4" stroke-linecap="round" stroke-linejoin="round"/>
<path d="M3115.29 661.523V816.137L3081.8 796.818V642.193L3115.29 661.523Z" fill="#7569E2" stroke="#443FC7" stroke-width="4" stroke-linecap="round" stroke-linejoin="round"/>
<path d="M1084.59 318.112L981.951 377.344L947.704 357.596L1050.38 298.364L1084.59 318.112Z" fill="#7569E2" stroke="#443FC7" stroke-width="4" stroke-linecap="round" stroke-linejoin="round"/>
<path d="M1050.38 397.092V476.072L1016.16 456.324V416.829C1016.16 405.921 1023.82 392.65 1033.25 387.19C1036.71 385.223 1041.47 383.731 1045.39 386.014C1049.28 388.253 1050.38 393.125 1050.38 397.081V397.092Z" fill="#7569E2" stroke="#443FC7" stroke-width="4" stroke-linecap="round" stroke-linejoin="round"/>
<path d="M981.951 377.344V515.568L947.704 495.82V357.597L981.951 377.344Z" fill="#7569E2" stroke="#443FC7" stroke-width="4" stroke-linecap="round" stroke-linejoin="round"/>
<path d="M1084.59 318.112V456.336L1050.38 476.083V397.103C1050.38 393.136 1049.28 388.275 1045.39 386.037C1041.46 383.765 1036.71 385.257 1033.25 387.213C1023.83 392.672 1016.16 405.943 1016.16 416.851V495.831L981.951 515.579V377.356L1084.59 318.112Z" fill="#C4BFF2" stroke="#4535D8" stroke-width="4" stroke-linejoin="round"/>
<path d="M2830.81 318.112L2728.17 377.344L2693.93 357.596L2796.6 298.364L2830.81 318.112Z" fill="#7569E2" stroke="#443FC7" stroke-width="4" stroke-linecap="round" stroke-linejoin="round"/>
<path d="M2796.6 397.092V476.072L2762.39 456.324V416.829C2762.39 405.921 2770.04 392.65 2779.48 387.19C2782.94 385.223 2787.69 383.731 2791.61 386.014C2795.5 388.253 2796.6 393.125 2796.6 397.081V397.092Z" fill="#7569E2" stroke="#443FC7" stroke-width="4" stroke-linecap="round" stroke-linejoin="round"/>
<path d="M2728.17 377.344V515.568L2693.93 495.82V357.597L2728.17 377.344Z" fill="#7569E2" stroke="#443FC7" stroke-width="4" stroke-linecap="round" stroke-linejoin="round"/>
<path d="M2830.81 318.112V456.336L2796.6 476.083V397.103C2796.6 393.136 2795.5 388.275 2791.61 386.037C2787.69 383.765 2782.94 385.257 2779.48 387.213C2770.05 392.672 2762.39 405.943 2762.39 416.851V495.831L2728.17 515.579V377.356L2830.81 318.112Z" fill="#C4BFF2" stroke="#4535D8" stroke-width="4" stroke-linejoin="round"/>
</svg>
