<svg width="946" height="174" viewBox="0 0 946 174" fill="none" xmlns="http://www.w3.org/2000/svg">
<path d="M316.81 54.9917H316.211L308.122 71.6193L286.702 111.166L265.281 71.6193L257.193 54.9917H256.593V130.04H237.869V25.4816H260.188L287.001 76.5626H287.601L314.114 25.4816H335.534V130.04H316.81V54.9917Z" fill="#383168"/>
<path d="M387.573 131.838C381.781 131.838 376.588 130.889 371.995 128.992C367.501 126.995 363.656 124.248 360.461 120.753C357.365 117.158 354.968 112.864 353.271 107.87C351.573 102.777 350.724 97.0849 350.724 90.7934C350.724 84.6018 351.523 79.0093 353.121 74.0161C354.818 69.0228 357.215 64.7785 360.311 61.2833C363.407 57.6881 367.201 54.9418 371.695 53.0444C376.189 51.0471 381.282 50.0484 386.974 50.0484C393.066 50.0484 398.358 51.097 402.852 53.1942C407.346 55.2913 411.041 58.1375 413.937 61.7326C416.833 65.3278 418.98 69.5221 420.378 74.3157C421.876 79.0093 422.625 84.0525 422.625 89.4452V95.7367H370.647V97.6841C370.647 103.376 372.244 107.97 375.44 111.466C378.636 114.861 383.379 116.559 389.67 116.559C394.464 116.559 398.358 115.56 401.354 113.563C404.45 111.565 407.196 109.019 409.593 105.923L419.928 117.457C416.733 121.951 412.339 125.497 406.747 128.093C401.254 130.59 394.863 131.838 387.573 131.838ZM387.274 64.429C382.181 64.429 378.136 66.1267 375.14 69.5221C372.144 72.9176 370.647 77.3116 370.647 82.7043V83.9027H402.702V82.5545C402.702 77.1618 401.354 72.8177 398.658 69.5221C396.061 66.1267 392.267 64.429 387.274 64.429Z" fill="#383168"/>
<path d="M460.914 130.04C454.323 130.04 449.28 128.343 445.785 124.947C442.39 121.452 440.692 116.509 440.692 110.117V67.1254H429.158V51.846H435.15C438.046 51.846 439.993 51.1969 440.992 49.8986C442.09 48.5005 442.64 46.4533 442.64 43.7569V30.4249H459.866V51.846H475.894V67.1254H459.866V114.761H474.695V130.04H460.914Z" fill="#383168"/>
<path d="M489.528 130.04V51.846H508.702V68.0242H509.451C509.95 65.927 510.699 63.9297 511.697 62.0322C512.796 60.0349 514.194 58.2873 515.892 56.7893C517.589 55.2913 519.587 54.093 521.883 53.1942C524.28 52.2954 527.026 51.846 530.122 51.846H534.316V69.9715H528.324C521.833 69.9715 516.94 70.9202 513.645 72.8177C510.349 74.7151 508.702 77.8109 508.702 82.1051V130.04H489.528Z" fill="#383168"/>
<path d="M575.613 131.838C570.021 131.838 564.978 130.889 560.484 128.992C556.09 127.094 552.296 124.348 549.1 120.753C546.004 117.158 543.608 112.864 541.91 107.87C540.212 102.777 539.363 97.0849 539.363 90.7934C539.363 84.5019 540.212 78.8595 541.91 73.8663C543.608 68.873 546.004 64.6287 549.1 61.1335C552.296 57.5383 556.09 54.792 560.484 52.8946C564.978 50.9971 570.021 50.0484 575.613 50.0484C581.206 50.0484 586.249 50.9971 590.742 52.8946C595.236 54.792 599.031 57.5383 602.127 61.1335C605.322 64.6287 607.769 68.873 609.466 73.8663C611.164 78.8595 612.013 84.5019 612.013 90.7934C612.013 97.0849 611.164 102.777 609.466 107.87C607.769 112.864 605.322 117.158 602.127 120.753C599.031 124.348 595.236 127.094 590.742 128.992C586.249 130.889 581.206 131.838 575.613 131.838ZM575.613 116.409C580.706 116.409 584.701 114.861 587.597 111.765C590.493 108.669 591.941 104.125 591.941 98.1335V83.6031C591.941 77.7111 590.493 73.2171 587.597 70.1213C584.701 67.0255 580.706 65.4776 575.613 65.4776C570.62 65.4776 566.676 67.0255 563.78 70.1213C560.884 73.2171 559.436 77.7111 559.436 83.6031V98.1335C559.436 104.125 560.884 108.669 563.78 111.765C566.676 114.861 570.62 116.409 575.613 116.409Z" fill="#383168"/>
<path d="M626.015 51.846H645.189V64.7286H645.788C647.186 60.2347 649.832 56.6895 653.727 54.093C657.621 51.3966 662.165 50.0484 667.358 50.0484C677.344 50.0484 684.934 53.5936 690.126 60.6841C695.419 67.6746 698.065 77.7111 698.065 90.7934C698.065 103.976 695.419 114.112 690.126 121.202C684.934 128.293 677.344 131.838 667.358 131.838C662.165 131.838 657.621 130.49 653.727 127.793C649.932 125.097 647.286 121.502 645.788 117.008H645.189V160H626.015V51.846ZM661.216 115.959C666.209 115.959 670.254 114.312 673.35 111.016C676.445 107.721 677.993 103.277 677.993 97.6841V84.2023C677.993 78.6099 676.445 74.1659 673.35 70.8703C670.254 67.4749 666.209 65.7772 661.216 65.7772C656.623 65.7772 652.778 66.9256 649.682 69.2225C646.686 71.5194 645.189 74.5653 645.189 78.3602V103.227C645.189 107.321 646.686 110.467 649.682 112.664C652.778 114.861 656.623 115.959 661.216 115.959Z" fill="#383168"/>
<path d="M743.843 131.838C738.251 131.838 733.208 130.889 728.714 128.992C724.32 127.094 720.526 124.348 717.33 120.753C714.234 117.158 711.838 112.864 710.14 107.87C708.442 102.777 707.594 97.0849 707.594 90.7934C707.594 84.5019 708.442 78.8595 710.14 73.8663C711.838 68.873 714.234 64.6287 717.33 61.1335C720.526 57.5383 724.32 54.792 728.714 52.8946C733.208 50.9971 738.251 50.0484 743.843 50.0484C749.436 50.0484 754.479 50.9971 758.973 52.8946C763.466 54.792 767.261 57.5383 770.357 61.1335C773.552 64.6287 775.999 68.873 777.697 73.8663C779.394 78.8595 780.243 84.5019 780.243 90.7934C780.243 97.0849 779.394 102.777 777.697 107.87C775.999 112.864 773.552 117.158 770.357 120.753C767.261 124.348 763.466 127.094 758.973 128.992C754.479 130.889 749.436 131.838 743.843 131.838ZM743.843 116.409C748.936 116.409 752.931 114.861 755.827 111.765C758.723 108.669 760.171 104.125 760.171 98.1335V83.6031C760.171 77.7111 758.723 73.2171 755.827 70.1213C752.931 67.0255 748.936 65.4776 743.843 65.4776C738.85 65.4776 734.906 67.0255 732.01 70.1213C729.114 73.2171 727.666 77.7111 727.666 83.6031V98.1335C727.666 104.125 729.114 108.669 732.01 111.765C734.906 114.861 738.85 116.409 743.843 116.409Z" fill="#383168"/>
<path d="M813.419 130.04C806.828 130.04 801.984 128.393 798.889 125.097C795.793 121.802 794.245 117.158 794.245 111.166V19.1901H813.419V114.761H823.754V130.04H813.419Z" fill="#383168"/>
<path d="M844.867 40.4614C840.872 40.4614 837.976 39.5626 836.179 37.765C834.481 35.9674 833.632 33.6705 833.632 30.8743V27.8783C833.632 25.0821 834.481 22.7852 836.179 20.9876C837.976 19.1901 840.872 18.2913 844.867 18.2913C848.762 18.2913 851.608 19.1901 853.405 20.9876C855.203 22.7852 856.101 25.0821 856.101 27.8783V30.8743C856.101 33.6705 855.203 35.9674 853.405 37.765C851.608 39.5626 848.762 40.4614 844.867 40.4614ZM835.28 51.846H854.454V130.04H835.28V51.846Z" fill="#383168"/>
<path d="M899.297 131.838C891.807 131.838 885.516 130.59 880.423 128.093C875.33 125.497 870.836 121.951 866.941 117.457L878.625 106.073C881.521 109.368 884.667 111.965 888.062 113.862C891.557 115.76 895.552 116.708 900.046 116.708C904.639 116.708 907.935 115.91 909.932 114.312C912.029 112.714 913.078 110.517 913.078 107.721C913.078 105.424 912.329 103.626 910.831 102.328C909.433 100.93 906.986 99.981 903.491 99.4817L895.702 98.4331C887.213 97.3346 880.722 94.9378 876.229 91.2428C871.835 87.4479 869.638 81.9553 869.638 74.7651C869.638 70.9702 870.337 67.5748 871.735 64.5788C873.133 61.483 875.13 58.8865 877.726 56.7893C880.323 54.5923 883.419 52.9445 887.014 51.846C890.709 50.6476 894.803 50.0484 899.297 50.0484C903.091 50.0484 906.437 50.348 909.333 50.9472C912.329 51.4465 915.025 52.2455 917.422 53.344C919.818 54.3426 922.015 55.6409 924.012 57.2387C926.01 58.7367 927.957 60.4344 929.854 62.3318L918.62 73.5667C916.323 71.1699 913.577 69.1726 910.381 67.5748C907.186 65.9769 903.691 65.178 899.896 65.178C895.702 65.178 892.656 65.927 890.758 67.425C888.961 68.9229 888.062 70.8703 888.062 73.2671C888.062 75.8636 888.811 77.8609 890.309 79.259C891.907 80.5572 894.553 81.506 898.248 82.1051L906.187 83.1537C923.064 85.5505 931.502 93.2401 931.502 106.223C931.502 110.017 930.703 113.513 929.105 116.708C927.608 119.804 925.46 122.501 922.664 124.798C919.868 126.995 916.473 128.742 912.478 130.04C908.584 131.239 904.19 131.838 899.297 131.838Z" fill="#383168"/>
<path d="M38.0046 147.89V42.5143C38.0276 40.1005 38.5686 37.8862 39.6275 35.8708C40.7095 33.832 42.2173 32.3829 44.151 31.1408C46.0847 29.8754 49.2716 29.4887 51.8268 29.4887C54.2209 29.4887 57.4138 30.375 59.2094 31.4765C61.028 32.5779 62.4437 34.0894 63.4566 36.0111C64.4695 37.9093 64.9875 40.077 65.0105 42.5143V111.94C65.0105 123.202 65.0105 142.836 92.0164 140.027C119.022 137.218 119.022 119.945 119.022 111.94V54.1244C119.045 51.7106 119.586 49.4955 120.645 47.4801C121.727 45.4413 123.235 43.9922 125.169 42.7502C127.102 41.4847 130.16 41.098 132.715 41.098C135.109 41.098 138.432 41.9843 140.227 43.0858C142.046 44.1872 143.461 45.6988 144.474 47.6204C145.487 49.5187 146.005 51.6872 146.028 54.1244V132.132C146.028 133.278 147.048 134.156 148.181 133.984L165.201 131.402C166.116 131.263 166.793 130.476 166.793 129.551V25.6813C166.793 24.75 166.108 23.9602 165.186 23.8279L99.8099 14.4414C98.6815 14.2794 97.6714 15.1311 97.6714 16.2711L97.6715 112.179C97.672 113.999 97.6732 117.807 91.9257 118.431C86.1213 119.062 86.1213 114.654 86.1213 112.126V14.2593C86.1213 13.3279 85.4368 12.5382 84.515 12.4058L19.1385 3.01936C18.0101 2.85735 17 3.73281 17 4.87283V150.352C17 151.491 18.0089 152.366 19.1368 152.205L36.3966 149.744C37.3192 149.612 38.0046 148.822 38.0046 147.89Z" fill="#383168"/>
<path d="M318.308 54.9917H317.709L309.62 71.6193L288.2 111.166L266.779 71.6193L258.691 54.9917H258.091V130.04H239.367V25.4816H261.686L288.499 76.5626H289.098L315.612 25.4816H337.032V130.04H318.308V54.9917Z" fill="#383168"/>
<path d="M389.071 131.838C383.279 131.838 378.086 130.889 373.493 128.992C368.999 126.995 365.154 124.248 361.959 120.753C358.863 117.158 356.466 112.864 354.769 107.87C353.071 102.777 352.222 97.0849 352.222 90.7934C352.222 84.6018 353.021 79.0093 354.619 74.0161C356.316 69.0228 358.713 64.7785 361.809 61.2833C364.905 57.6881 368.699 54.9418 373.193 53.0444C377.687 51.0471 382.78 50.0484 388.472 50.0484C394.563 50.0484 399.856 51.097 404.35 53.1942C408.844 55.2913 412.539 58.1375 415.435 61.7326C418.331 65.3278 420.478 69.5221 421.876 74.3157C423.374 79.0093 424.123 84.0525 424.123 89.4452V95.7367H372.144V97.6841C372.144 103.376 373.742 107.97 376.938 111.466C380.133 114.861 384.877 116.559 391.168 116.559C395.962 116.559 399.856 115.56 402.852 113.563C405.948 111.565 408.694 109.019 411.091 105.923L421.426 117.457C418.231 121.951 413.837 125.497 408.245 128.093C402.752 130.59 396.361 131.838 389.071 131.838ZM388.771 64.429C383.679 64.429 379.634 66.1267 376.638 69.5221C373.642 72.9176 372.144 77.3116 372.144 82.7043V83.9027H404.2V82.5545C404.2 77.1618 402.852 72.8177 400.156 69.5221C397.559 66.1267 393.765 64.429 388.771 64.429Z" fill="#383168"/>
<path d="M462.412 130.04C455.821 130.04 450.778 128.343 447.283 124.947C443.888 121.452 442.19 116.509 442.19 110.117V67.1254H430.656V51.846H436.648C439.544 51.846 441.491 51.1969 442.49 49.8986C443.588 48.5005 444.137 46.4533 444.137 43.7569V30.4249H461.364V51.846H477.391V67.1254H461.364V114.761H476.193V130.04H462.412Z" fill="#383168"/>
<path d="M491.026 130.04V51.846H510.2V68.0242H510.949C511.448 65.927 512.197 63.9297 513.195 62.0322C514.294 60.0349 515.692 58.2873 517.39 56.7893C519.087 55.2913 521.084 54.093 523.381 53.1942C525.778 52.2954 528.524 51.846 531.62 51.846H535.814V69.9715H529.822C523.331 69.9715 518.438 70.9202 515.143 72.8177C511.847 74.7151 510.2 77.8109 510.2 82.1051V130.04H491.026Z" fill="#383168"/>
<path d="M577.111 131.838C571.519 131.838 566.476 130.889 561.982 128.992C557.588 127.094 553.794 124.348 550.598 120.753C547.502 117.158 545.106 112.864 543.408 107.87C541.71 102.777 540.861 97.0849 540.861 90.7934C540.861 84.5019 541.71 78.8595 543.408 73.8663C545.106 68.873 547.502 64.6287 550.598 61.1335C553.794 57.5383 557.588 54.792 561.982 52.8946C566.476 50.9971 571.519 50.0484 577.111 50.0484C582.704 50.0484 587.747 50.9971 592.24 52.8946C596.734 54.792 600.529 57.5383 603.625 61.1335C606.82 64.6287 609.267 68.873 610.964 73.8663C612.662 78.8595 613.511 84.5019 613.511 90.7934C613.511 97.0849 612.662 102.777 610.964 107.87C609.267 112.864 606.82 117.158 603.625 120.753C600.529 124.348 596.734 127.094 592.24 128.992C587.747 130.889 582.704 131.838 577.111 131.838ZM577.111 116.409C582.204 116.409 586.199 114.861 589.095 111.765C591.991 108.669 593.439 104.125 593.439 98.1335V83.6031C593.439 77.7111 591.991 73.2171 589.095 70.1213C586.199 67.0255 582.204 65.4776 577.111 65.4776C572.118 65.4776 568.174 67.0255 565.278 70.1213C562.382 73.2171 560.934 77.7111 560.934 83.6031V98.1335C560.934 104.125 562.382 108.669 565.278 111.765C568.174 114.861 572.118 116.409 577.111 116.409Z" fill="#383168"/>
<path d="M627.513 51.846H646.686V64.7286H647.286C648.684 60.2347 651.33 56.6895 655.225 54.093C659.119 51.3966 663.663 50.0484 668.856 50.0484C678.842 50.0484 686.431 53.5936 691.624 60.6841C696.917 67.6746 699.563 77.7111 699.563 90.7934C699.563 103.976 696.917 114.112 691.624 121.202C686.431 128.293 678.842 131.838 668.856 131.838C663.663 131.838 659.119 130.49 655.225 127.793C651.43 125.097 648.784 121.502 647.286 117.008H646.686V160H627.513V51.846ZM662.714 115.959C667.707 115.959 671.752 114.312 674.847 111.016C677.943 107.721 679.491 103.277 679.491 97.6841V84.2023C679.491 78.6099 677.943 74.1659 674.847 70.8703C671.752 67.4749 667.707 65.7772 662.714 65.7772C658.121 65.7772 654.276 66.9256 651.18 69.2225C648.184 71.5194 646.686 74.5653 646.686 78.3602V103.227C646.686 107.321 648.184 110.467 651.18 112.664C654.276 114.861 658.121 115.959 662.714 115.959Z" fill="#383168"/>
<path d="M745.341 131.838C739.749 131.838 734.706 130.889 730.212 128.992C725.818 127.094 722.024 124.348 718.828 120.753C715.732 117.158 713.336 112.864 711.638 107.87C709.94 102.777 709.092 97.0849 709.092 90.7934C709.092 84.5019 709.94 78.8595 711.638 73.8663C713.336 68.873 715.732 64.6287 718.828 61.1335C722.024 57.5383 725.818 54.792 730.212 52.8946C734.706 50.9971 739.749 50.0484 745.341 50.0484C750.934 50.0484 755.977 50.9971 760.47 52.8946C764.964 54.792 768.759 57.5383 771.855 61.1335C775.05 64.6287 777.497 68.873 779.195 73.8663C780.892 78.8595 781.741 84.5019 781.741 90.7934C781.741 97.0849 780.892 102.777 779.195 107.87C777.497 112.864 775.05 117.158 771.855 120.753C768.759 124.348 764.964 127.094 760.47 128.992C755.977 130.889 750.934 131.838 745.341 131.838ZM745.341 116.409C750.434 116.409 754.429 114.861 757.325 111.765C760.221 108.669 761.669 104.125 761.669 98.1335V83.6031C761.669 77.7111 760.221 73.2171 757.325 70.1213C754.429 67.0255 750.434 65.4776 745.341 65.4776C740.348 65.4776 736.404 67.0255 733.508 70.1213C730.612 73.2171 729.164 77.7111 729.164 83.6031V98.1335C729.164 104.125 730.612 108.669 733.508 111.765C736.404 114.861 740.348 116.409 745.341 116.409Z" fill="#383168"/>
<path d="M814.917 130.04C808.326 130.04 803.482 128.393 800.387 125.097C797.291 121.802 795.743 117.158 795.743 111.166V19.1901H814.917V114.761H825.252V130.04H814.917Z" fill="#383168"/>
<path d="M846.365 40.4614C842.37 40.4614 839.474 39.5626 837.677 37.765C835.979 35.9674 835.13 33.6705 835.13 30.8743V27.8783C835.13 25.0821 835.979 22.7852 837.677 20.9876C839.474 19.1901 842.37 18.2913 846.365 18.2913C850.259 18.2913 853.106 19.1901 854.903 20.9876C856.701 22.7852 857.599 25.0821 857.599 27.8783V30.8743C857.599 33.6705 856.701 35.9674 854.903 37.765C853.106 39.5626 850.259 40.4614 846.365 40.4614ZM836.778 51.846H855.952V130.04H836.778V51.846Z" fill="#383168"/>
<path d="M900.795 131.838C893.305 131.838 887.014 130.59 881.921 128.093C876.828 125.497 872.334 121.951 868.439 117.457L880.123 106.073C883.019 109.368 886.165 111.965 889.56 113.862C893.055 115.76 897.05 116.708 901.544 116.708C906.137 116.708 909.433 115.91 911.43 114.312C913.527 112.714 914.576 110.517 914.576 107.721C914.576 105.424 913.827 103.626 912.329 102.328C910.931 100.93 908.484 99.981 904.989 99.4817L897.2 98.4331C888.711 97.3346 882.22 94.9378 877.726 91.2428C873.333 87.4479 871.136 81.9553 871.136 74.7651C871.136 70.9702 871.835 67.5748 873.233 64.5788C874.631 61.483 876.628 58.8865 879.224 56.7893C881.821 54.5923 884.917 52.9445 888.512 51.846C892.206 50.6476 896.301 50.0484 900.795 50.0484C904.589 50.0484 907.935 50.348 910.831 50.9472C913.827 51.4465 916.523 52.2455 918.919 53.344C921.316 54.3426 923.513 55.6409 925.51 57.2387C927.508 58.7367 929.455 60.4344 931.352 62.3318L920.118 73.5667C917.821 71.1699 915.075 69.1726 911.879 67.5748C908.684 65.9769 905.189 65.178 901.394 65.178C897.2 65.178 894.154 65.927 892.256 67.425C890.459 68.9229 889.56 70.8703 889.56 73.2671C889.56 75.8636 890.309 77.8609 891.807 79.259C893.405 80.5572 896.051 81.506 899.746 82.1051L907.685 83.1537C924.562 85.5505 933 93.2401 933 106.223C933 110.017 932.201 113.513 930.603 116.708C929.105 119.804 926.958 122.501 924.162 124.798C921.366 126.995 917.971 128.742 913.976 130.04C910.082 131.239 905.688 131.838 900.795 131.838Z" fill="#383168"/>
</svg>
