<svg width="98" height="21" viewBox="0 0 149 21" fill="none" xmlns="http://www.w3.org/2000/svg"><path d="M3.33438 20V6.68872C3.33438 5.77664 4.075 5.03726 4.98861 5.03726C5.90221 5.03726 6.64283 5.77664 6.64283 6.68872V16.3329C6.64283 18.6343 8.5089 20.5 10.8108 20.5C13.1127 20.5 14.9788 18.6343 14.9788 16.3329V9.64949C14.9788 8.73741 15.7194 7.99803 16.633 7.99803C17.5466 7.99803 18.2872 8.73741 18.2872 9.64949V20C18.2872 20.2761 18.5111 20.5 18.7872 20.5H21.1216C21.3978 20.5 21.6216 20.2761 21.6216 20V6.3512C21.6216 6.12187 21.4656 5.92194 21.2432 5.86619L12.2659 3.61653C11.9503 3.53743 11.6444 3.77613 11.6444 4.10153V16.3329C11.6444 16.7931 11.2712 17.1663 10.8108 17.1663C10.3504 17.1663 9.97721 16.7931 9.97721 16.3329V3.39044C9.97721 3.16111 9.82121 2.96118 9.59875 2.90544L0.62154 0.65577C0.305899 0.576671 0 0.815371 0 1.14077V20C0 20.2761 0.223858 20.5 0.5 20.5H2.83438C3.11053 20.5 3.33438 20.2761 3.33438 20Z" fill="#4535D8"></path><path d="M47.14 5.96V20H43.72V11.58L40.58 20H37.82L34.66 11.56V20H31.24V5.96H35.28L39.22 15.68L43.12 5.96H47.14ZM52.2194 8.7V11.54H56.7994V14.18H52.2194V17.26H57.3994V20H48.7994V5.96H57.3994V8.7H52.2194ZM68.9197 5.96V8.7H65.1997V20H61.7797V8.7H58.0597V5.96H68.9197ZM76.9961 20L74.0761 14.7H73.2561V20H69.8361V5.96H75.5761C76.6828 5.96 77.6228 6.15333 78.3961 6.54C79.1828 6.92667 79.7694 7.46 80.1561 8.14C80.5428 8.80667 80.7361 9.55333 80.7361 10.38C80.7361 11.3133 80.4694 12.1467 79.9361 12.88C79.4161 13.6133 78.6428 14.1333 77.6161 14.44L80.8561 20H76.9961ZM73.2561 12.28H75.3761C76.0028 12.28 76.4694 12.1267 76.7761 11.82C77.0961 11.5133 77.2561 11.08 77.2561 10.52C77.2561 9.98667 77.0961 9.56667 76.7761 9.26C76.4694 8.95333 76.0028 8.8 75.3761 8.8H73.2561V12.28ZM88.723 20.14C87.403 20.14 86.1896 19.8333 85.083 19.22C83.9896 18.6067 83.1163 17.7533 82.463 16.66C81.823 15.5533 81.503 14.3133 81.503 12.94C81.503 11.5667 81.823 10.3333 82.463 9.24C83.1163 8.14667 83.9896 7.29333 85.083 6.68C86.1896 6.06667 87.403 5.76 88.723 5.76C90.043 5.76 91.2496 6.06667 92.343 6.68C93.4496 7.29333 94.3163 8.14667 94.943 9.24C95.583 10.3333 95.903 11.5667 95.903 12.94C95.903 14.3133 95.583 15.5533 94.943 16.66C94.303 17.7533 93.4363 18.6067 92.343 19.22C91.2496 19.8333 90.043 20.14 88.723 20.14ZM88.723 17.02C89.843 17.02 90.7363 16.6467 91.403 15.9C92.083 15.1533 92.423 14.1667 92.423 12.94C92.423 11.7 92.083 10.7133 91.403 9.98C90.7363 9.23333 89.843 8.86 88.723 8.86C87.5896 8.86 86.683 9.22667 86.003 9.96C85.3363 10.6933 85.003 11.6867 85.003 12.94C85.003 14.18 85.3363 15.1733 86.003 15.92C86.683 16.6533 87.5896 17.02 88.723 17.02ZM107.706 10.48C107.706 11.2933 107.519 12.04 107.146 12.72C106.772 13.3867 106.199 13.9267 105.426 14.34C104.652 14.7533 103.692 14.96 102.546 14.96H100.426V20H97.0056V5.96H102.546C103.666 5.96 104.612 6.15333 105.386 6.54C106.159 6.92667 106.739 7.46 107.126 8.14C107.512 8.82 107.706 9.6 107.706 10.48ZM102.286 12.24C102.939 12.24 103.426 12.0867 103.746 11.78C104.066 11.4733 104.226 11.04 104.226 10.48C104.226 9.92 104.066 9.48667 103.746 9.18C103.426 8.87333 102.939 8.72 102.286 8.72H100.426V12.24H102.286ZM115.326 20.14C114.006 20.14 112.793 19.8333 111.686 19.22C110.593 18.6067 109.719 17.7533 109.066 16.66C108.426 15.5533 108.106 14.3133 108.106 12.94C108.106 11.5667 108.426 10.3333 109.066 9.24C109.719 8.14667 110.593 7.29333 111.686 6.68C112.793 6.06667 114.006 5.76 115.326 5.76C116.646 5.76 117.853 6.06667 118.946 6.68C120.053 7.29333 120.919 8.14667 121.546 9.24C122.186 10.3333 122.506 11.5667 122.506 12.94C122.506 14.3133 122.186 15.5533 121.546 16.66C120.906 17.7533 120.039 18.6067 118.946 19.22C117.853 19.8333 116.646 20.14 115.326 20.14ZM115.326 17.02C116.446 17.02 117.339 16.6467 118.006 15.9C118.686 15.1533 119.026 14.1667 119.026 12.94C119.026 11.7 118.686 10.7133 118.006 9.98C117.339 9.23333 116.446 8.86 115.326 8.86C114.193 8.86 113.286 9.22667 112.606 9.96C111.939 10.6933 111.606 11.6867 111.606 12.94C111.606 14.18 111.939 15.1733 112.606 15.92C113.286 16.6533 114.193 17.02 115.326 17.02ZM127.029 17.36H131.509V20H123.609V5.96H127.029V17.36ZM135.76 5.96V20H132.34V5.96H135.76ZM142.518 20.14C141.492 20.14 140.572 19.9733 139.758 19.64C138.945 19.3067 138.292 18.8133 137.798 18.16C137.318 17.5067 137.065 16.72 137.038 15.8H140.678C140.732 16.32 140.912 16.72 141.218 17C141.525 17.2667 141.925 17.4 142.418 17.4C142.925 17.4 143.325 17.2867 143.618 17.06C143.912 16.82 144.058 16.4933 144.058 16.08C144.058 15.7333 143.938 15.4467 143.698 15.22C143.472 14.9933 143.185 14.8067 142.838 14.66C142.505 14.5133 142.025 14.3467 141.398 14.16C140.492 13.88 139.752 13.6 139.178 13.32C138.605 13.04 138.112 12.6267 137.698 12.08C137.285 11.5333 137.078 10.82 137.078 9.94C137.078 8.63333 137.552 7.61333 138.498 6.88C139.445 6.13333 140.678 5.76 142.198 5.76C143.745 5.76 144.992 6.13333 145.938 6.88C146.885 7.61333 147.392 8.64 147.458 9.96H143.758C143.732 9.50667 143.565 9.15333 143.258 8.9C142.952 8.63333 142.558 8.5 142.078 8.5C141.665 8.5 141.332 8.61333 141.078 8.84C140.825 9.05333 140.698 9.36667 140.698 9.78C140.698 10.2333 140.912 10.5867 141.338 10.84C141.765 11.0933 142.432 11.3667 143.338 11.66C144.245 11.9667 144.978 12.26 145.538 12.54C146.112 12.82 146.605 13.2267 147.018 13.76C147.432 14.2933 147.638 14.98 147.638 15.82C147.638 16.62 147.432 17.3467 147.018 18C146.618 18.6533 146.032 19.1733 145.258 19.56C144.485 19.9467 143.572 20.14 142.518 20.14Z" fill="#4535D8"></path></svg>