<svg width="48" height="48" viewBox="0 0 48 48" fill="none" xmlns="http://www.w3.org/2000/svg">
<g clip-path="url(#clip0_1508_25059)">
<path d="M6.73077 46.6057V12.7103C6.73815 11.9339 6.9115 11.2216 7.25082 10.5733C7.59753 9.9175 8.0807 9.45139 8.70034 9.05187C9.31998 8.64481 10.3412 8.52043 11.16 8.52043C11.9272 8.52043 12.9503 8.80553 13.5257 9.15983C14.1085 9.51412 14.5621 10.0003 14.8867 10.6185C15.2113 11.229 15.3772 11.9263 15.3846 12.7103V35.0419C15.3846 38.6645 15.3846 44.98 24.0385 44.0765C32.6923 43.1731 32.6923 37.617 32.6923 35.0419V16.4448C32.6997 15.6684 32.873 14.9559 33.2124 14.3076C33.5591 13.6518 34.0422 13.1857 34.6619 12.7862C35.2815 12.3791 36.2612 12.2547 37.08 12.2547C37.8472 12.2547 38.9119 12.5398 39.4872 12.8941C40.07 13.2484 40.5237 13.7346 40.8482 14.3527C41.1728 14.9633 41.3388 15.6609 41.3462 16.4448V41.5371C41.3462 41.9058 41.6731 42.1879 42.0361 42.1326L47.49 41.3022C47.7833 41.2575 48 41.0044 48 40.7067V7.29575C48 6.99618 47.7807 6.74214 47.4853 6.69956L26.5359 3.68029C26.1743 3.62818 25.8506 3.90214 25.8506 4.26884V35.1017L25.8506 35.1189C25.8508 35.7042 25.8512 36.9291 24.0094 37.1299C22.1494 37.3328 22.1494 35.915 22.1494 35.1017V3.62169C22.1494 3.32211 21.9301 3.06807 21.6347 3.0255L0.685268 0.00622733C0.323677 -0.0458859 0 0.235717 0 0.602419V47.3976C0 47.7641 0.323302 48.0456 0.68472 47.9939L6.21549 47.202C6.51114 47.1596 6.73077 46.9055 6.73077 46.6057Z" fill="#383168"/>
</g>
<defs>
<clipPath id="clip0_1508_25059">
<rect width="48" height="48" fill="white"/>
</clipPath>
</defs>
</svg>
