<svg width="20" height="24" viewBox="0 0 24 24" fill="none" xmlns="http://www.w3.org/2000/svg">
<path d="M3.36538 23.0318V5.9661C3.36907 5.57865 3.45575 5.22321 3.62541 4.8997C3.79876 4.57244 4.04035 4.33983 4.35017 4.14046C4.65999 3.93733 5.09059 3.87526 5.5 3.87526C5.88359 3.87526 6.47516 4.01754 6.76285 4.19434C7.05423 4.37114 7.28106 4.61377 7.44335 4.92223C7.60563 5.22693 7.68862 5.57488 7.69231 5.9661L7.75033 21.537C7.75263 22.153 8.30604 22.6205 8.91381 22.5198L15.5096 21.4268C15.9922 21.3468 16.3462 20.9299 16.3462 20.4408V7.96987C16.3498 7.58241 16.4365 7.22685 16.6062 6.90335C16.7795 6.57608 17.0211 6.34347 17.3309 6.1441C17.6408 5.94097 18.0714 5.8789 18.4808 5.8789C18.8644 5.8789 19.4559 6.02118 19.7436 6.19798C20.035 6.37478 20.2618 6.61741 20.4241 6.92587C20.5864 7.23057 20.6694 7.57865 20.6731 7.96987V19.9838C20.6731 20.2926 20.9501 20.5275 21.2547 20.4771L23.5817 20.0919C23.823 20.0519 24 19.8432 24 19.5986V4.38619C24 4.14164 23.8231 3.93298 23.5819 3.89294L13.5072 2.22086C13.2025 2.1703 12.9253 2.39754 12.9253 2.70638V18.5059C12.9253 18.6034 12.8551 18.6787 12.759 18.6951L11.3084 18.9431C11.1863 18.964 11.0747 18.8699 11.0747 18.746V2.2329C11.0747 1.98786 10.8971 1.77892 10.6553 1.73944L0.580557 0.094774C0.276289 0.0451032 0 0.279946 0 0.588242V23.413C0 23.7209 0.275592 23.9556 0.579555 23.9066L2.94494 23.5254C3.18725 23.4863 3.36538 23.2772 3.36538 23.0318Z" fill="#383168"/>
</svg>
