<svg width="100" height="25" viewBox="0 0 140 25" fill="none" xmlns="http://www.w3.org/2000/svg">
<path d="M3.36538 23.0157V6C3.36907 5.61327 3.45575 5.25851 3.62541 4.93561C3.79876 4.60895 4.04035 4.37679 4.35017 4.17779C4.65999 3.97504 5.09059 3.91309 5.5 3.91309C5.88359 3.91309 6.47516 4.0551 6.76285 4.23157C7.05423 4.40803 7.28106 4.65021 7.44335 4.95809C7.60563 5.26221 7.68862 5.60952 7.69231 6V17.5C7.69231 19.3043 7.69231 22.45 12.0192 22C16.3462 21.55 16.3462 18.7826 16.3462 17.5V8C16.3498 7.61327 16.4365 7.25838 16.6062 6.93548C16.7795 6.60883 17.0211 6.37666 17.3309 6.17767C17.6408 5.97492 18.0714 5.91297 18.4808 5.91297C18.8644 5.91297 19.4559 6.05497 19.7436 6.23144C20.035 6.40791 20.2618 6.65008 20.4241 6.95796C20.5864 7.26209 20.6694 7.60952 20.6731 8V20.5025C20.6731 20.8086 20.9455 21.0428 21.2481 20.9969L23.575 20.6439C23.8194 20.6068 24 20.3967 24 20.1496V4.432C24 4.18389 23.8181 3.97331 23.5726 3.9373L13.4979 2.45932C13.1961 2.41505 12.9253 2.64478 12.9253 2.94981V17.5C12.9253 18.2636 12.9253 18.9569 12 18.9569C11.0747 18.9569 11.0747 18.4569 11.0747 17.5V2.41779C11.0747 2.17592 10.9016 1.96873 10.6636 1.92575L0.588858 0.106343C0.28211 0.0509466 0 0.286673 0 0.598384V23.4098C0 23.7188 0.277419 23.9538 0.582178 23.903L2.94756 23.5089C3.18867 23.4687 3.36538 23.2601 3.36538 23.0157Z" fill="#383168"/>
<path d="M45.64 8.252H45.53L44.32 10.738L40.954 16.876L37.588 10.738L36.378 8.252H36.268V20H33.892V4.644H36.84L40.954 12.454H41.086L45.2 4.644H48.016V20H45.64V8.252ZM56.122 20.264C55.3006 20.264 54.5673 20.1247 53.922 19.846C53.2766 19.5673 52.7266 19.1713 52.272 18.658C51.8173 18.13 51.4653 17.4993 51.216 16.766C50.9813 16.018 50.864 15.1893 50.864 14.28C50.864 13.3707 50.9813 12.5493 51.216 11.816C51.4653 11.068 51.8173 10.4373 52.272 9.924C52.7266 9.396 53.2766 8.99267 53.922 8.714C54.5673 8.43533 55.3006 8.296 56.122 8.296C56.958 8.296 57.6913 8.44267 58.322 8.736C58.9673 9.02933 59.5026 9.44 59.928 9.968C60.3533 10.4813 60.6686 11.0827 60.874 11.772C61.094 12.4613 61.204 13.202 61.204 13.994V14.896H53.35V15.27C53.35 16.15 53.6066 16.876 54.12 17.448C54.648 18.0053 55.396 18.284 56.364 18.284C57.068 18.284 57.662 18.13 58.146 17.822C58.63 17.514 59.0406 17.096 59.378 16.568L60.786 17.954C60.3606 18.658 59.7446 19.2227 58.938 19.648C58.1313 20.0587 57.1926 20.264 56.122 20.264ZM56.122 10.166C55.7113 10.166 55.33 10.2393 54.978 10.386C54.6406 10.5327 54.3473 10.738 54.098 11.002C53.8633 11.266 53.68 11.5813 53.548 11.948C53.416 12.3147 53.35 12.718 53.35 13.158V13.312H58.674V13.092C58.674 12.212 58.4466 11.508 57.992 10.98C57.5373 10.4373 56.914 10.166 56.122 10.166ZM67.0266 20C66.1906 20 65.5599 19.7873 65.1346 19.362C64.7092 18.922 64.4966 18.306 64.4966 17.514V10.518H62.7146V8.56H63.6826C64.0786 8.56 64.3499 8.472 64.4966 8.296C64.6579 8.12 64.7386 7.834 64.7386 7.438V5.436H66.8946V8.56H69.2926V10.518H66.8946V18.042H69.1166V20H67.0266ZM71.8937 20V8.56H74.2917V10.76H74.4017C74.5631 10.1733 74.9004 9.66 75.4137 9.22C75.9271 8.78 76.6384 8.56 77.5477 8.56H78.1857V10.87H77.2397C76.2864 10.87 75.5531 11.024 75.0397 11.332C74.5411 11.64 74.2917 12.0947 74.2917 12.696V20H71.8937ZM84.6962 20.264C83.9042 20.264 83.1782 20.1247 82.5182 19.846C81.8729 19.5673 81.3229 19.1713 80.8682 18.658C80.4135 18.13 80.0615 17.4993 79.8122 16.766C79.5629 16.018 79.4382 15.1893 79.4382 14.28C79.4382 13.3707 79.5629 12.5493 79.8122 11.816C80.0615 11.068 80.4135 10.4373 80.8682 9.924C81.3229 9.396 81.8729 8.99267 82.5182 8.714C83.1782 8.43533 83.9042 8.296 84.6962 8.296C85.4882 8.296 86.2069 8.43533 86.8522 8.714C87.5122 8.99267 88.0695 9.396 88.5242 9.924C88.9789 10.4373 89.3309 11.068 89.5802 11.816C89.8295 12.5493 89.9542 13.3707 89.9542 14.28C89.9542 15.1893 89.8295 16.018 89.5802 16.766C89.3309 17.4993 88.9789 18.13 88.5242 18.658C88.0695 19.1713 87.5122 19.5673 86.8522 19.846C86.2069 20.1247 85.4882 20.264 84.6962 20.264ZM84.6962 18.284C85.5175 18.284 86.1775 18.0347 86.6762 17.536C87.1749 17.0227 87.4242 16.26 87.4242 15.248V13.312C87.4242 12.3 87.1749 11.5447 86.6762 11.046C86.1775 10.5327 85.5175 10.276 84.6962 10.276C83.8749 10.276 83.2149 10.5327 82.7162 11.046C82.2175 11.5447 81.9682 12.3 81.9682 13.312V15.248C81.9682 16.26 82.2175 17.0227 82.7162 17.536C83.2149 18.0347 83.8749 18.284 84.6962 18.284ZM92.6262 8.56H95.0242V10.452H95.1342C95.3835 9.76267 95.7868 9.23467 96.3442 8.868C96.9162 8.48667 97.5835 8.296 98.3462 8.296C99.7982 8.296 100.92 8.824 101.712 9.88C102.504 10.9213 102.9 12.388 102.9 14.28C102.9 16.172 102.504 17.646 101.712 18.702C100.92 19.7433 99.7982 20.264 98.3462 20.264C97.5835 20.264 96.9162 20.0733 96.3442 19.692C95.7868 19.3107 95.3835 18.7827 95.1342 18.108H95.0242V24.4H92.6262V8.56ZM97.6202 18.196C98.4562 18.196 99.1235 17.932 99.6222 17.404C100.121 16.8613 100.37 16.15 100.37 15.27V13.29C100.37 12.41 100.121 11.706 99.6222 11.178C99.1235 10.6353 98.4562 10.364 97.6202 10.364C96.8868 10.364 96.2708 10.5473 95.7722 10.914C95.2735 11.266 95.0242 11.7353 95.0242 12.322V16.238C95.0242 16.8247 95.2735 17.3013 95.7722 17.668C96.2708 18.02 96.8868 18.196 97.6202 18.196ZM110.134 20.264C109.342 20.264 108.616 20.1247 107.956 19.846C107.31 19.5673 106.76 19.1713 106.306 18.658C105.851 18.13 105.499 17.4993 105.25 16.766C105 16.018 104.876 15.1893 104.876 14.28C104.876 13.3707 105 12.5493 105.25 11.816C105.499 11.068 105.851 10.4373 106.306 9.924C106.76 9.396 107.31 8.99267 107.956 8.714C108.616 8.43533 109.342 8.296 110.134 8.296C110.926 8.296 111.644 8.43533 112.29 8.714C112.95 8.99267 113.507 9.396 113.962 9.924C114.416 10.4373 114.768 11.068 115.018 11.816C115.267 12.5493 115.392 13.3707 115.392 14.28C115.392 15.1893 115.267 16.018 115.018 16.766C114.768 17.4993 114.416 18.13 113.962 18.658C113.507 19.1713 112.95 19.5673 112.29 19.846C111.644 20.1247 110.926 20.264 110.134 20.264ZM110.134 18.284C110.955 18.284 111.615 18.0347 112.114 17.536C112.612 17.0227 112.862 16.26 112.862 15.248V13.312C112.862 12.3 112.612 11.5447 112.114 11.046C111.615 10.5327 110.955 10.276 110.134 10.276C109.312 10.276 108.652 10.5327 108.154 11.046C107.655 11.5447 107.406 12.3 107.406 13.312V15.248C107.406 16.26 107.655 17.0227 108.154 17.536C108.652 18.0347 109.312 18.284 110.134 18.284ZM120.506 20C119.684 20 119.068 19.7947 118.658 19.384C118.262 18.9587 118.064 18.372 118.064 17.624V3.72H120.462V18.042H122.046V20H120.506ZM125.547 6.514C125.048 6.514 124.682 6.39667 124.447 6.162C124.227 5.92733 124.117 5.62667 124.117 5.26V4.886C124.117 4.51933 124.227 4.21867 124.447 3.984C124.682 3.74933 125.048 3.632 125.547 3.632C126.046 3.632 126.405 3.74933 126.625 3.984C126.845 4.21867 126.955 4.51933 126.955 4.886V5.26C126.955 5.62667 126.845 5.92733 126.625 6.162C126.405 6.39667 126.046 6.514 125.547 6.514ZM124.337 8.56H126.735V20H124.337V8.56ZM133.789 20.264C132.704 20.264 131.795 20.0733 131.061 19.692C130.328 19.3107 129.69 18.7827 129.147 18.108L130.687 16.7C131.113 17.2133 131.582 17.6167 132.095 17.91C132.623 18.1887 133.232 18.328 133.921 18.328C134.625 18.328 135.146 18.196 135.483 17.932C135.835 17.6533 136.011 17.272 136.011 16.788C136.011 16.4213 135.887 16.1133 135.637 15.864C135.403 15.6 134.985 15.4313 134.383 15.358L133.327 15.226C132.154 15.0793 131.23 14.742 130.555 14.214C129.895 13.6713 129.565 12.872 129.565 11.816C129.565 11.2587 129.668 10.7673 129.873 10.342C130.079 9.902 130.365 9.53533 130.731 9.242C131.113 8.934 131.56 8.69933 132.073 8.538C132.601 8.37667 133.181 8.296 133.811 8.296C134.838 8.296 135.674 8.45733 136.319 8.78C136.979 9.10267 137.566 9.55 138.079 10.122L136.605 11.53C136.312 11.178 135.923 10.8773 135.439 10.628C134.97 10.364 134.427 10.232 133.811 10.232C133.151 10.232 132.66 10.364 132.337 10.628C132.029 10.892 131.875 11.2367 131.875 11.662C131.875 12.102 132.015 12.432 132.293 12.652C132.572 12.872 133.019 13.0333 133.635 13.136L134.691 13.268C135.953 13.4587 136.869 13.8327 137.441 14.39C138.028 14.9327 138.321 15.666 138.321 16.59C138.321 17.1473 138.211 17.6533 137.991 18.108C137.786 18.548 137.485 18.9293 137.089 19.252C136.693 19.5747 136.217 19.824 135.659 20C135.102 20.176 134.479 20.264 133.789 20.264Z" fill="#383168"/>
</svg>
